PathFileType	4	(X/Y/Z)	47_1_13_p1_0-342_filt_butterworth.trc
DataRate	CameraRate	NumFrames	NumMarkers	Units	OrigDataRate	OrigDataStartFrame	OrigNumFrames
59.0	59.0	6	27	m	59.0	85	342
Frame#	Time	RHip			RKnee			RAnkle			RBigToe			RSmallToe			RHeel			LHip			LKnee			LAnkle			LBigToe			LSmallToe			LHeel			Neck			Head			Nose			RShoulder			RElbow			RWrist			RThumb			RIndex			RPinky			LShoulder			LElbow			LWrist			LThumb			LIndex			LPinky			
		X1	Y1	Z1	X2	Y2	Z2	X3	Y3	Z3	X4	Y4	Z4	X5	Y5	Z5	X6	Y6	Z6	X7	Y7	Z7	X8	Y8	Z8	X9	Y9	Z9	X10	Y10	Z10	X11	Y11	Z11	X12	Y12	Z12	X13	Y13	Z13	X14	Y14	Z14	X15	Y15	Z15	X16	Y16	Z16	X17	Y17	Z17	X18	Y18	Z18	X19	Y19	Z19	X20	Y20	Z20	X21	Y21	Z21	X22	Y22	Z22	X23	Y23	Z23	X24	Y24	Z24	X25	Y25	Z25	X26	Y26	Z26	X27	Y27	Z27	
85	1.4406779661016949	0.3475432329409484	0.4021275610672484	-0.2160568259894153	0.3437216337042313	0.6390482721525459	0.15497299905864914	0.30936889015344426	0.8980501637840517	0.5455229344941194	0.35305781379407136	0.6728907401816964	0.650748739520442	0.4150766898871264	0.7236566498136368	0.6386364786073141	0.26112066109896837	0.9891397312800772	0.5664777552177694	0.1438055608771761	0.3639388258078464	-0.18629053826939151	0.1303315203574007	0.5897294586821658	0.1974349766596081	0.1292229527316699	0.8079486530254305	0.5402823675159492	0.20736626648267012	0.6455522011269452	0.6674391866393161	0.13869876567685488	0.685461423589196	0.6654728874867042	0.1270522583932618	0.90007449813554	0.5821209971766905	0.3173215863367892	0.07282385920125446	-0.6821848736369422	0.3839526164168218	-0.11550395185180562	-0.8520894295682038	0.3774768738438298	-0.10657244593712614	-0.7052679976255904	0.45055689717397857	0.17907011553760202	-0.6333396460560871	0.46210885866785756	0.30079904980886724	-0.3840601584438857	0.3406529626999956	0.3083841718936198	-0.1558910976711624	0.2659151278857452	0.3047664005347543	-0.053730288942246504	0.23889127595499804	0.3428494963320911	-0.0470455567703646	0.23880496258170522	0.34971588778363183	-0.05377474241431843	0.14831006149909315	0.09916336182513014	-0.6227786757185695	0.11399012657773247	0.18213914822227595	-0.35750047266193746	0.23910157908101912	0.22706902040224974	-0.16470383155032287	0.32025509706357724	0.24711045968832324	-0.08713409713974403	0.31086677665865725	0.27647298409016396	-0.05051616391821092	0.2604324987158281	0.3196340206558001	-0.050216288797243894
86	1.4576271186440677	0.3479884063422708	0.4019975886416999	-0.2172166772574025	0.34365679637369057	0.6388386472108473	0.15498269889647198	0.30938149004119586	0.8981180611757333	0.5455476784048554	0.3530234072517799	0.6727715952511264	0.6503421083775794	0.41511030453784153	0.7235374617205136	0.6386415240661707	0.26106558934042257	0.989110367442615	0.5664699035641574	0.14368757408078814	0.36421117045927287	-0.18628121327600564	0.13040333782975122	0.5895387997110152	0.19613820281100092	0.12923134672742118	0.8079642138982795	0.5403569008597132	0.20727492833749483	0.6455409288356366	0.666357696369493	0.1387011308267388	0.6854454583161016	0.665455040319075	0.12709148454439262	0.9039063434688247	0.5806844342574041	0.31696299117952176	0.07145512191085589	-0.6822273959670871	0.3784221274367215	-0.11485322974158318	-0.8526155810031428	0.37487306668621223	-0.10763374286160035	-0.7041244159055827	0.45055480749223953	0.17501564422496438	-0.6340082448974528	0.4619532632402198	0.3005008966994638	-0.38602763921904587	0.3408933692965298	0.30815727741852644	-0.15585981841957852	0.26617904024614925	0.3042212684939682	-0.05426559216851282	0.23892720492594954	0.3424757180681039	-0.048355825476873594	0.24143823809344328	0.34529699014359116	-0.053359677138199765	0.14828952905521678	0.09911213680165994	-0.6227733113030797	0.112803213001293	0.1804593607354048	-0.3576631519638273	0.23876597310902586	0.2326892047367542	-0.16622197088356483	0.32076308704850465	0.246597027465694	-0.08892812980490239	0.31157577200763675	0.2761612172535928	-0.05151480941942732	0.26056055840617653	0.3196326875998076	-0.050221667705500794
87	1.4745762711864407	0.3480892183737555	0.401275961572057	-0.21869757586742924	0.3436831184107714	0.6387062440637109	0.15501511765546924	0.3084169714815062	0.8972150381698676	0.5457500990904292	0.35305977233406405	0.67307027066252	0.650349760764974	0.41515666976814947	0.7234833278412685	0.6386602327026952	0.26101800611733733	0.9889988437846655	0.5664464420824792	0.14367443358031598	0.3642142066532401	-0.18636891859492627	0.13010706458370785	0.5898650249436928	0.19533273887795213	0.12926504450504564	0.8079724843941587	0.5404063712820715	0.20728333655701875	0.6454695728622486	0.6659009843906181	0.1387303901334679	0.6854001366675655	0.665445490757485	0.12716025276572446	0.9050439478351151	0.5788956590485641	0.31710646124503644	0.06853376734757771	-0.6811319024568403	0.37282194415246533	-0.11544785921479517	-0.851709384092209	0.37333593279639377	-0.1079011763898318	-0.7031169880935939	0.4505439858948507	0.17028751776215745	-0.6342383382409635	0.4617426338458565	0.30003761716493477	-0.38785440658180675	0.34112439543945017	0.3079721385259023	-0.15581656469941008	0.26633267859860443	0.30371913064707756	-0.05534876642535219	0.23880062119129175	0.3424582116124566	-0.049295608598557174	0.24330284169587044	0.3420599679334497	-0.05270657414488969	0.14827552437544517	0.0990752587952104	-0.6227739326119992	0.11189791211641562	0.17932448069509618	-0.35780494968053633	0.23826201991775176	0.23940388639515273	-0.16792687460159916	0.32112830246202284	0.2462214868218054	-0.0901142107640011	0.3126678081785442	0.27605493465158387	-0.052575201370943694	0.2606952627504007	0.3197456950143066	-0.050348094991440315
88	1.4915254237288136	0.3480491495338749	0.4004958646956387	-0.2197510084006841	0.34406887833891536	0.6388939096448578	0.1550000433585966	0.30706431917394406	0.8958408146300545	0.546012038821536	0.35311367419896705	0.673201625146695	0.650453760620064	0.41519616238569895	0.723482407364849	0.6387018468486797	0.26102524938810656	0.9888245973965377	0.5664016406667455	0.14379993344355332	0.36396175101093475	-0.18679924388233476	0.1297735719256713	0.5901567013524498	0.19514828021391306	0.12930425002730028	0.8079774395574653	0.5404041071993213	0.20732639397284483	0.6453719955551811	0.6658682771941685	0.13875469545763053	0.6853674816138133	0.6654505449579665	0.1272253315444253	0.9045263199568367	0.5774715935695898	0.3174049620180311	0.06452075886494374	-0.6794163007497108	0.3679413686531333	-0.11668044957346316	-0.8504129097021383	0.37177718769431356	-0.10809041925050925	-0.7024906342141943	0.45045966591701336	0.16675473353097114	-0.6347772571530752	0.46154024435118035	0.2995371256574185	-0.38931800873581185	0.34126947729697843	0.3078778989431551	-0.15579721665769453	0.2665275578168313	0.30316239962792885	-0.05640338493353608	0.2387829430944246	0.34240250405617373	-0.04964193021996455	0.24444029270602807	0.34142604247401587	-0.05246406013004889	0.14826195750911156	0.09903015184931442	-0.6228252336793249	0.1115631089809416	0.17895623297523847	-0.3577201072146308	0.23778596049079825	0.24514905820260455	-0.16943963727862144	0.32178419877853587	0.24679518615131096	-0.0909883815873492	0.3139072879434558	0.27628275299079513	-0.05322440738948307	0.2603829696231452	0.32016400946394225	-0.050778193589025834
89	1.5084745762711864	0.34798551994795135	0.40004484396406953	-0.21999297157541697	0.34500210893510774	0.6395237160883703	0.1547708749960091	0.3060771287941212	0.8947997805829686	0.5461979428588357	0.3531689173413364	0.6730394122648636	0.6504911615217952	0.41521809152896555	0.7234820377526895	0.6387678003213095	0.26107769789028873	0.9887069473248677	0.5663618953609924	0.14399804218798717	0.36357985018879757	-0.18771352570501865	0.130464637514182	0.5888752044402453	0.1948958636073077	0.12932813741099566	0.8079842607154423	0.5403627730095142	0.20737646585563407	0.6452838144659035	0.6659712807884207	0.1387543574589339	0.6853586674083649	0.6654564614300672	0.1272595522523344	0.9038514147566764	0.5768318768835606	0.3176539670928709	0.06106792501647251	-0.6781542245511253	0.3639274051103064	-0.11785971779947252	-0.8493878127602594	0.3694156271668892	-0.10865504435680708	-0.7020553756732817	0.4503300964683351	0.1650693713664573	-0.6353447389555671	0.4613527510667439	0.2990538236795002	-0.3906732598924017	0.3412668324179018	0.3078754423778661	-0.15584336822508538	0.26677333714210677	0.30279181152453083	-0.05672951741595082	0.23973370986521791	0.34134237344782625	-0.04948240362076091	0.2454416414603373	0.3425324089387492	-0.05281109843431517	0.14824319651816661	0.09897487257546997	-0.6229458651883468	0.11158907656347274	0.17913514370575265	-0.3575006958617389	0.23746633209415272	0.24847916358034539	-0.17040210883658585	0.32294458687450184	0.24832387668487776	-0.09188673889466052	0.3149217198510724	0.27698634386711424	-0.05301300973843612	0.25913994537120816	0.3210850577316584	-0.051523135350753965
90	1.5254237288135593	0.34790004776585326	0.4004178040459718	-0.219516326372734	0.3461768598107154	0.6403325963398433	0.1541232265627458	0.30572709868005066	0.8944695169803716	0.546258222786985	0.3532283581330712	0.6728113162853384	0.6504968513205128	0.41521983703352777	0.7234717619746613	0.6388281013228828	0.2611224248039275	0.9887837869896388	0.5663595434331412	0.14415291698697147	0.36328974241736206	-0.1888249162524871	0.13304480403849267	0.5848849411496148	0.1937338097146502	0.12932923729058815	0.8079866983213845	0.5403021648163508	0.20742917810842976	0.6452023445395118	0.6660485040168432	0.13873252941970995	0.6853633570494065	0.6654424212987873	0.1272489984803099	0.9036243846413127	0.5767300938123533	0.31785455366216886	0.0592372308118362	-0.677773226546264	0.3610295926353974	-0.11869410184565093	-0.8486439447132812	0.3661973093407469	-0.10953519194129854	-0.7016378950451436	0.4502720096010594	0.16389393173378636	-0.634780487767549	0.4611747603163484	0.29862807765704347	-0.39199058516455737	0.3410758693084278	0.30802333420538214	-0.15597129153244985	0.2672121305346547	0.302899272000323	-0.05595756971174485	0.24247092587110752	0.3386230511840316	-0.049031464662256496	0.24687769712702273	0.3437549893380476	-0.0537766150939927	0.14821913733300784	0.0989805035536149	-0.6230093155291404	0.11173372392163812	0.17960981246995703	-0.35733950215517685	0.23741606670792914	0.24952150532831927	-0.17071403996806594	0.3241206947255566	0.25016952557432626	-0.09268992354367718	0.3158813858955051	0.2781570977321006	-0.052276372844038875	0.25778565598676717	0.322876677040481	-0.05221202976371375
